<svg id="Layer_1" data-name="Layer 1" xmlns="http://www.w3.org/2000/svg" viewBox="0 0 720 720"><defs><style>.cls-1{fill:#9D9A9F;}</style></defs><g id="Facebook"><path class="cls-1" d="M360,0C161.2,0,0,161.2,0,360S161.2,720,360,720,720,558.8,720,360,558.8,0,360,0ZM535.19,512.24c0,10.62-5.22,21.92-15.74,21.92H430.88V401.4h45l6.83-56.89H430.88v-34c0-15.17,4.08-22.94,25.89-22.94h31V238c-9.48-.66-24.18-2.09-43.43-2.09-40,0-70.36,24.46-70.36,69.41v39.17H326.57V401.4H374V534.16H209.75c-10.62,0-15.93-11.3-15.93-21.92V202.54c0-10.62,5.31-19.24,15.93-19.24h309.7c10.53,0,15.74,8.62,15.74,19.24Z"/></g></svg>