<svg id="Layer_1" data-name="Layer 1" xmlns="http://www.w3.org/2000/svg" viewBox="0 0 720 720"><defs><style>.cls-1{fill:#9D9A9F;}</style></defs><title>Artboard 1</title><g id="LinKeDin"><path class="cls-1" d="M360,0C161.2,0,0,161.2,0,360S161.2,720,360,720,720,558.8,720,360,558.8,0,360,0ZM269.68,520.3H203.3V302.2h66.38ZM232.6,283.24h-.47c-24.75,0-40.68-18.87-40.68-39.83,0-21.34,16.4-38.69,41.63-38.69s40.58,17.92,41.15,39.26C274.23,264.94,258.21,283.24,232.6,283.24ZM544.67,520.3H459.33V409.83c0-29.3-9.77-49.21-36.41-49.21-20.29,0-32.05,13.46-37.36,26.46-2,4.65-2.09,11.09-2.09,17.64V520.3H310.08s.95-199.13,0-218.1h73.39v37.27c9.48-14.79,32.24-35.94,71.31-35.94,48.46,0,89.89,31,89.89,98Z"/></g></svg>