<svg id="Layer_1" data-name="Layer 1" xmlns="http://www.w3.org/2000/svg" viewBox="0 0 720 524.95"><defs><style>.cls-1{fill:var(--color_fill);}</style></defs><title>Artboard 1</title><path class="cls-1" d="M717.48,320.31c-10.15-57.61-34.94-98.49-38.76-73.1-3.29,21.85.15,83.13-29.49,117.6-23.58,27.42-72,10.74-116.1-84-45.73-98.32-49.82-119.42-67.74-123.14s-21.67,27.71-38.33,75.64-31.2,99.08-31.2,99.08S357.4,124.54,345.05,70.84c-17.87-77.72-30.56-81.57-38.57-58.45-9.72,28-21.68,79.09-43.37,190.61-13.9,71.47-35.45,165.79-61,196.76-14.93,18.13-28.15,26.35-40.56,26.77,19.49-64.65,37.82-153.36,34.86-233.35C191,45.11,131.24,2.79,103.69.52s-82,9.13-99.75,127c-14.21,94.44,12.93,191.43,34.44,242.69C48.93,395.33,62,428.86,78.78,458.28c-12.88,21-23.11,39.43-13.52,52.79,14.12,19.67,39.13,15.87,57.14.78,13.73,10,29.08,15,46.28,12.4,76.19-11.66,117.4-107.67,129.78-191.95s19.08-147.61,19.08-147.61,12,120.25,19.5,177c7.1,53.55,20.33,163.22,39.66,162.52C397.62,523.49,406.51,494,443,365.4c14.15-44.33,25.23-89,25.23-89s42.63,110.45,62.11,139c24.12,35.38,72.87,70.35,127.41,41.58C718.71,424.82,725,362.84,717.48,320.31ZM84,100.2c30.26-20.75,55.55,11.11,58.86,90.49,2.53,60.6-7,135.23-28.81,196.48C91.88,342.73,65.54,249.28,63.67,202.67,61.25,142.33,69.82,109.91,84,100.2Z"/></svg>