<svg id="Layer_1" data-name="Layer 1" xmlns="http://www.w3.org/2000/svg" viewBox="0 0 720 720"><defs><style>.cls-1{fill:#9D9A9F;}</style></defs><title>Artboard 1</title><g id="Twitter"><path class="cls-1" d="M360,0C161.2,0,0,161.2,0,360S161.2,720,360,720,720,558.8,720,360,558.8,0,360,0ZM496.88,283.71c.09,3.22.19,6.45.19,9.67,0,98.71-73.3,212.6-207.29,212.6a203,203,0,0,1-111.7-33.57,149.69,149.69,0,0,0,17.35,1,144.26,144.26,0,0,0,90.56-32c-32-.66-58.79-22.19-68.08-51.87A72.44,72.44,0,0,0,231.56,391a76.61,76.61,0,0,0,20-2.66c-33.38-6.83-57.75-37.08-57.75-73.3v-.85a68.37,68.37,0,0,0,32.34,9.29A76.15,76.15,0,0,1,203,223.69c35.94,45.23,89.51,74.91,150.11,78a72.28,72.28,0,0,1-1.94-17c0-41.25,32.6-74.72,72.8-74.72a71.89,71.89,0,0,1,53.18,23.52,141.92,141.92,0,0,0,46.27-18.11,74.21,74.21,0,0,1-32.05,41.34A140.46,140.46,0,0,0,533.2,245,148.56,148.56,0,0,1,496.88,283.71Z"/></g></svg>